# xmcd
#
# Track frame offsets:
# 150
# 8579
# 29884
# 45719
# 96590
# 117197
# 131468
# 155145
# 173137
# 186223
# 206388
# 234705
# 256022
# 289158
#
# Disc length: 4568 seconds
#
# Revision: 8
# Processed by: cddbd v1.4PL0 Copyright (c) Steve Scherf et al.
# Submitted via: Axialis_AX_CDPlayer 2.6
#
DISCID=c511d60e
DTITLE=Stevie Ray Vaughan - Box Set
DYEAR=1900
DGENRE=
TTITLE0=Scuttle Buttin' - Stevie Ray Vaughan And Double Trouble
TTITLE1=Couldn't Stand The Weather - Stevie Ray Vaughan And Double Trouble
TTITLE2=Empty Arms - Stevie Ray Vaughan And Double Trouble
TTITLE3=Little Wing/Third Stone From The Sun - Stevie Ray Vaughan And Double
TTITLE3=Trouble
TTITLE4=If You Have To Know - Stevie Ray Vaughan and Lonnie Mack
TTITLE5=These Blues Is Killing Me - A.C. Reed and Stevie Ray Vaughan
TTITLE6=Boilermaker
TTITLE7=Change It
TTITLE8=Shake 'N Bake
TTITLE9=Mary Had A Little Lamb
TTITLE10=I'm Leavin' You (Committ A Crime)
TTITLE11=Rude Mood/Pipeline - Stevie Ray Vaughan and Jimmie Vaughan
TTITLE12=The Sky Is Crying
TTITLE13=Voodoo Chile
EXTD=The Boxed Set!\n\n3 CDs plus 1 DVD\n\nOver 4 hours of music!\n\n54 tota
EXTD=l tracks/36 unissued performances (plus one never before on CD]\n\n Inc
EXTD=ludes live performances, studio sessions and rare TV and radio bro \nad
EXTD=casts\n\n24-bit Mastering form the original sources\n\n72-page book  cr
EXTD=ammed with unseen photos\n\nPlus 5 incisive essays . SRV timeline  . Qu
EXTD=otes from SRV and homeages \nfrom some of rock's biggest stars . Ex ten
EXTD=sive track annotations and personnel \nlisting
EXTT0=Taken from the album Couldn't Stand The Weather 1984
EXTT1=Taken from the album Couldn't Stand The Weather 1984
EXTT2=Taken from the album The Sky Is Crying 1984
EXTT3=CBS Records Convention, Honolulu, Hawaii 1984\n\nPreviously unissued
EXTT4=Lonnie Mack (with Stevie Ray Vaughan]\n\nTaken from the album Strike L
EXTT4=ike Lightning 1984
EXTT5=with A.C. Reed
EXTT6=Outtake from the Soul To Soul sessions 1985\n\nPreviously unissued
EXTT7=Taken from the album Soul To Soul 1985
EXTT8=Outtake from the Soul To Soul sessions 1985\n\nPreviously unissued
EXTT9=Taken from the album Live Alive 1985
EXTT10=MTV's "Mardi Gras" appearance 1987\n\nPreviously unissued
EXTT11=MTV's "Mardi Gras" appearance 1987\n\nPreviously unissued
EXTT12=Recorded at Carnegie Hall, New York, New York 1984\n\nPreviously unis
EXTT12=sued
EXTT13=Recorded at Carnegie Hall, New York, New York 1984\n\nPreviously unis
EXTT13=sued
PLAYORDER=
